<?xml version="1.0" encoding="utf-8"?>
<svg class="d-block" version="1.1" id="Layer_1"
	xmlns="http://www.w3.org/2000/svg" xmlns:xlink="http://www.w3.org/1999/xlink" x="0px"
	y="0px" viewBox="0 0 348 57" style="enable-background:new 0 0 348 57;"
	xml:space="preserve" aria-label="Athene">
	<style type="text/css">
		.logo-no-tag {
			fill: #FFFFFF;
		}
	</style>
	<g>
		<path class="logo-no-tag" d="M88.19,1.92c7.45,17.63,18.85,45.3,22.88,53.43c-1.37-0.23-2.66-0.38-4.03-0.38c-1.37,0-2.66,0.15-4.03,0.38
		c-1.44-5.24-5.09-13.6-7.83-20.37c-3.27-0.08-6.61-0.15-9.96-0.15c-3.12,0-6.16,0.08-9.27,0.15c-3.19,7.83-6.08,15.58-7.37,20.37
		c-0.99-0.23-1.9-0.38-2.81-0.38c-0.91,0-1.82,0.15-2.81,0.38C71.09,37.57,79,19.86,86.75,1.92H88.19z M85.68,12.18l-8.28,19.3
		c2.66,0,5.55,0.15,8.21,0.15c2.81,0,5.7-0.08,8.51-0.15L85.68,12.18z" />
		<path class="logo-no-tag"
			d="M120.19,22.59c0-5.24-0.08-10.49-0.23-15.73c-5.24,0-12.01,0.3-16.27,0.84c0.23-0.76,0.38-1.6,0.38-2.43
		c0-0.76-0.15-1.52-0.38-2.36c6.54,0.23,13.07,0.38,19.61,0.38c6.54,0,13.07-0.15,19.61-0.38c-0.23,0.84-0.38,1.6-0.38,2.43
		c0,0.76,0.15,1.6,0.38,2.36c-4.26-0.53-11.02-0.84-16.27-0.84c-0.15,5.24-0.23,10.49-0.23,15.73v13.07c0,6.54,0.3,13.15,0.61,19.68
		c-1.29-0.23-2.51-0.38-3.72-0.38c-1.22,0-2.43,0.15-3.72,0.38c0.3-6.54,0.61-13.15,0.61-19.68V22.59z" />
		<path class="logo-no-tag" d="M188.36,22.59c0-6.54-0.3-13.15-0.61-19.68c1.29,0.23,2.51,0.38,3.72,0.38c1.22,0,2.43-0.15,3.72-0.38
		c-0.3,6.54-0.61,13.15-0.61,19.68v13.07c0,6.54,0.3,13.15,0.61,19.68c-1.29-0.23-2.51-0.38-3.72-0.38c-1.21,0-2.43,0.15-3.72,0.38
		c0.3-6.54,0.61-13.15,0.61-19.68v-6.84c-5.32-0.08-10.56-0.15-15.88-0.15c-5.32,0-10.57,0.08-15.89,0.15v6.84
		c0,6.54,0.3,13.15,0.61,19.68c-1.29-0.23-2.51-0.38-3.72-0.38c-1.22,0-2.43,0.15-3.72,0.38c0.3-6.54,0.61-13.15,0.61-19.68V22.59
		c0-6.54-0.3-13.15-0.61-19.68c1.29,0.23,2.51,0.38,3.72,0.38c1.22,0,2.43-0.15,3.72-0.38c-0.3,6.54-0.61,13.15-0.61,19.68v2.66
		c5.32,0.08,10.56,0.23,15.89,0.23c5.32,0,10.56-0.15,15.88-0.23V22.59z" />
		<path class="logo-no-tag" d="M206.45,22.52c0-6.54-0.3-13.15-0.61-19.61c4.56,0.23,9.04,0.38,13.6,0.38c4.56,0,9.04-0.15,13.53-0.38
		c-0.15,0.76-0.23,1.52-0.23,2.28c0,0.76,0.08,1.52,0.23,2.28c-6.38-0.46-10.11-0.99-19.99-0.99c-0.07,3.27-0.3,5.93-0.3,9.65
		c0,3.95,0.08,8.13,0.08,10.03c8.97,0,13.98-0.38,18.47-0.76c-0.15,0.76-0.23,1.6-0.23,2.36c0,0.76,0.08,1.52,0.23,2.28
		c-5.24-0.53-14.82-0.68-18.47-0.68c-0.08,1.82-0.08,3.72-0.08,11.02c0,5.78,0.08,9.5,0.15,11.4c6.76,0,15.73-0.08,20.52-0.99
		c-0.15,0.68-0.23,1.67-0.23,2.36c0,0.68,0.08,1.52,0.23,2.2c-4.48-0.23-9.04-0.38-13.68-0.38s-9.2,0.15-13.83,0.38
		c0.3-6.61,0.61-13.22,0.61-19.76V22.52z" />
		<path class="logo-no-tag"
			d="M284.2,56.34c-11.55-13.6-25.38-28.2-38.38-42.03c-0.08,2.81-0.23,7.37-0.23,15.43
		c0,6.54,0.3,22.57,0.68,25.61c-0.84-0.23-1.75-0.38-2.66-0.38c-0.91,0-1.82,0.15-2.81,0.38c0.61-3.57,1.6-23.03,1.6-33.06
		c0-9.58,0-16.95-0.23-20.37h1.22c12.39,13.45,29.19,31.77,38.46,41.12c0-13.6,0-28.42-0.61-40.13c0.84,0.23,1.75,0.38,2.58,0.38
		c0.84,0,1.6-0.15,2.43-0.38c-0.46,4.48-1.22,19.53-1.22,25.46c0,7.75,0.15,24.55,0.23,27.97H284.2z" />
		<path class="logo-no-tag" d="M295.97,22.52c0-6.54-0.3-13.15-0.61-19.61c4.56,0.23,9.04,0.38,13.61,0.38c4.56,0,9.04-0.15,13.53-0.38
		c-0.15,0.76-0.23,1.52-0.23,2.28c0,0.76,0.08,1.52,0.23,2.28c-6.38-0.46-10.11-0.99-19.99-0.99c-0.08,3.27-0.3,5.93-0.3,9.65
		c0,3.95,0.08,8.13,0.08,10.03c8.97,0,13.98-0.38,18.47-0.76c-0.15,0.76-0.23,1.6-0.23,2.36c0,0.76,0.07,1.52,0.23,2.28
		c-5.24-0.53-14.82-0.68-18.47-0.68c-0.08,1.82-0.08,3.72-0.08,11.02c0,5.78,0.08,9.5,0.15,11.4c6.76,0,15.73-0.08,20.52-0.99
		c-0.15,0.68-0.23,1.67-0.23,2.36c0,0.68,0.08,1.52,0.23,2.2c-4.48-0.23-9.05-0.38-13.68-0.38c-4.63,0-9.2,0.15-13.83,0.38
		c0.3-6.61,0.61-13.22,0.61-19.76V22.52z" />
	</g>
	<g>
		<path class="logo-no-tag" d="M7.05,7.67C4.91,9.05,2.88,10.59,1,12.29c17.35,3.01,31.42,11.69,40.07,24.16
		C36.32,22.54,25.27,12.64,7.05,7.67z" />
		<path class="logo-no-tag" d="M19.6,2.04c-3.2,0.89-6.32,2.14-9.28,3.72C33.26,12.86,42.3,27.58,45.28,41.7
		C45.22,25.58,36.63,12.29,19.6,2.04z" />
		<path class="logo-no-tag" d="M47.71,47.21c4.9-21.87-5.91-37.58-15.38-46.65c-0.61-0.03-1.22-0.06-1.84-0.06c-2.38,0-4.76,0.24-7.11,0.67
		C44.72,15.03,49.18,32.41,47.71,47.21z" />
		<path class="logo-no-tag" d="M49.59,50.91c6.8-14.73,6.29-30.22-1.5-45.58c-3.45-2.07-7.29-3.55-11.46-4.28
		C45.6,10.68,56.07,27.73,49.59,50.91z" />
		<path class="logo-no-tag" d="M60.1,17.27c-2.09-3.35-4.63-6.3-7.55-8.76c6.61,15.98,5.82,32.33-2.42,47.41c5.37-7.67,8.92-16.71,9.94-26.66
		C60.49,25.15,60.53,21.22,60.1,17.27z" />
	</g>
	<g>
		<path class="logo-no-tag"
			d="M333.01,2.98c2.5,0,4.52,2,4.52,4.5s-2.02,4.46-4.52,4.46c-2.5,0-4.52-1.96-4.52-4.46S330.51,2.98,333.01,2.98
		z M333.01,11.28c2.1,0,3.81-1.72,3.81-3.81c0-2.1-1.7-3.81-3.81-3.81s-3.81,1.7-3.81,3.81C329.2,9.56,330.9,11.28,333.01,11.28z
		M331.24,4.92h1.78c0.95,0,1.88,0.4,1.88,1.49c0,0.73-0.46,1.21-1.17,1.37l1.37,2.22H334l-1.19-2.12h-0.66v2.12h-0.91V4.92z
		M332.89,7.14C333.4,7.14,334,7,334,6.39c0-0.56-0.53-0.69-1.01-0.69h-0.83v1.45H332.89z" />
	</g>
</svg>