<?xml version="1.0" encoding="UTF-8"?>
<svg id="Logo_White_-_Driven" data-name="Logo White - Driven" xmlns="http://www.w3.org/2000/svg" version="1.1" viewBox="0 0 758.2 65.2">
  <defs>
    <style>
      .cls-1 {
        fill: none;
      }

      .cls-1, .cls-2, .cls-3 {
        stroke-width: 0px;
      }

      .cls-2 {
        fill: #5091cd;
      }

      .cls-3 {
        fill: #231f20;
      }
    </style>
  </defs>
  <rect id="Rectangle_4035" data-name="Rectangle 4035" class="cls-1" width="758.2" height="65.2"/>
  <path id="Path_1049" data-name="Path 1049" class="cls-2" d="M8.1,7.6c-2.2,1.4-4.2,2.9-6.1,4.6,17.4,3,31.4,11.7,40.1,24.2-4.8-13.9-15.8-23.8-34-28.8Z"/>
  <path id="Path_1049-2" data-name="Path 1049" class="cls-3" d="M89.2,1.8c7.4,17.6,18.8,45.3,22.9,53.4-1.3-.2-2.7-.4-4-.4-1.3,0-2.7.2-4,.4-1.4-5.2-5.1-13.6-7.8-20.4-3.3,0-6.6-.2-10-.2s-6.2,0-9.3.2c-2.8,6.7-5.3,13.5-7.4,20.4-.9-.2-1.9-.4-2.8-.4-.9,0-1.9.2-2.8.4,8.1-17.8,16-35.5,23.8-53.4h1.4ZM86.7,12.1l-8.3,19.3c2.7,0,5.5.2,8.2.2s5.7-.1,8.5-.2l-8.4-19.3ZM121.2,22.5c0-5.2,0-10.5-.2-15.7-5.4,0-10.9.3-16.3.8.2-.8.4-1.6.4-2.4,0-.8-.2-1.6-.4-2.4,6.5.2,13.1.4,19.6.4s13.1-.2,19.6-.4c-.2.8-.4,1.6-.4,2.4,0,.8.2,1.6.4,2.4-5.4-.5-10.9-.8-16.3-.8-.2,5.2-.2,10.5-.2,15.7v13.1c0,6.5.3,13.1.6,19.7-1.2-.2-2.5-.4-3.7-.4-1.2,0-2.5.2-3.7.4.3-6.5.6-13.1.6-19.7v-13.1ZM189.4,22.5c0-6.5-.3-13.1-.6-19.7,1.2.2,2.5.4,3.7.4,1.2,0,2.5-.2,3.7-.4-.3,6.5-.6,13.1-.6,19.7v13.1c0,6.5.3,13.1.6,19.7-2.4-.5-5-.5-7.4,0,.3-6.5.6-13.1.6-19.7v-6.8c-5.3-.1-10.6-.2-15.9-.2s-10.6.1-15.9.2v6.8c0,6.5.3,13.1.6,19.7-1.2-.2-2.5-.4-3.7-.4-1.2,0-2.5.2-3.7.4.3-6.5.6-13.1.6-19.7v-13.1c0-6.5-.3-13.1-.6-19.7,1.2.2,2.5.4,3.7.4,1.2,0,2.5-.2,3.7-.4-.3,6.5-.6,13.1-.6,19.7v2.7c5.3.1,10.6.2,15.9.2s10.6-.2,15.9-.2v-2.7ZM207.5,22.4c0-6.5-.3-13.1-.6-19.6,4.6.2,9,.4,13.6.4s9-.2,13.5-.4c-.2.8-.2,1.5-.2,2.3,0,.8,0,1.5.2,2.3-6.6-.7-13.3-1-20-1-.1,3.3-.3,5.9-.3,9.7s.1,8.1.1,10c9,0,14-.4,18.5-.8-.2.8-.2,1.6-.2,2.4,0,.8,0,1.5.2,2.3-5.2-.5-14.8-.7-18.5-.7-.1,1.8-.1,3.7-.1,11s.1,9.5.2,11.4c6.8,0,15.7,0,20.5-1-.2.8-.2,1.6-.2,2.4,0,.7,0,1.5.2,2.2-4.5-.2-9-.4-13.7-.4s-9.2.2-13.8.4c.3-6.6.6-13.2.6-19.8v-13.1ZM285.2,56.3c-11.6-13.6-25.4-28.2-38.4-42-.1,2.8-.2,7.4-.2,15.4s.3,22.6.7,25.6c-.9-.2-1.8-.4-2.7-.4-.9,0-1.9.2-2.8.4.6-3.6,1.6-23,1.6-33.1s0-16.9-.2-20.4h1.2c12.4,13.5,29.2,31.8,38.5,41.1,0-13.6,0-28.4-.6-40.1.8.2,1.7.4,2.6.4.8,0,1.6-.2,2.4-.4-.5,4.5-1.2,19.5-1.2,25.5s.2,24.5.2,28h-1.1ZM297,22.4c0-6.5-.3-13.1-.6-19.6,4.6.2,9,.4,13.6.4s9-.2,13.5-.4c-.2.8-.2,1.5-.2,2.3,0,.8,0,1.5.2,2.3-6.6-.7-13.3-1-20-1-.1,3.3-.3,5.9-.3,9.7s.1,8.1.1,10c9,0,14-.4,18.5-.8-.2.8-.2,1.6-.2,2.4,0,.8,0,1.5.2,2.3-5.2-.5-14.8-.7-18.5-.7-.1,1.8-.1,3.7-.1,11s.1,9.5.2,11.4c6.8,0,15.7,0,20.5-1-.2.8-.2,1.6-.2,2.4,0,.7,0,1.5.2,2.2-4.5-.2-9-.4-13.7-.4s-9.2.2-13.8.4c.3-6.6.6-13.2.6-19.8v-13.1h0Z"/>
  <path id="Path_1050" data-name="Path 1050" class="cls-2" d="M20.6,2c-3.2.9-6.3,2.1-9.3,3.7,22.9,7.1,32,21.8,35,35.9,0-16.1-8.7-29.4-25.7-39.6Z"/>
  <path id="Path_1051" data-name="Path 1051" class="cls-2" d="M48.7,47.1C53.6,25.2,42.8,9.5,33.3.4c-.6,0-1.2,0-1.8,0-2.4,0-4.8.2-7.1.7,21.3,14,25.8,31.3,24.3,46.1Z"/>
  <path id="Path_1052" data-name="Path 1052" class="cls-2" d="M50.6,50.8c6.8-14.7,6.3-30.2-1.5-45.6-3.6-2.1-7.4-3.5-11.5-4.2,9,9.6,19.5,26.6,13,49.8Z"/>
  <path id="Path_1053" data-name="Path 1053" class="cls-2" d="M61.1,17.2c-2.1-3.3-4.6-6.3-7.6-8.8,6.6,16,5.8,32.3-2.4,47.4,5.6-7.9,9-17.1,9.9-26.7.5-4,.5-7.9,0-11.9Z"/>
  <path id="Path_1054" data-name="Path 1054" class="cls-2" d="M350.3,20.5h12.8c6.6,0,16.4,4.4,16.4,16.7s-9.8,16.7-16.4,16.7h-12.8V20.5ZM354.2,50.2h7.5c7.6,0,13.4-3.9,13.4-13s-5.8-13-13.4-13h-7.5v26ZM385.1,37c0-2-.2-3.8-.2-5.2h3.5c0,1.2.1,2.4.1,3.6h.1c1.4-2.7,4.3-4.3,7.4-4.2.5,0,1,0,1.5.2l-.2,3.7c-.6-.2-1.3-.3-2-.3-4.5,0-6.5,3.2-6.5,8.2v10.7h-3.7v-16.7h0ZM403.9,20.5c1.5,0,2.7,1.2,2.7,2.7,0,0,0,0,0,0,0,1.5-1.2,2.7-2.7,2.7-1.5,0-2.7-1.2-2.7-2.7,0-1.5,1.2-2.7,2.7-2.7,0,0,0,0,0,0ZM402.1,31.8h3.7v22.1h-3.7v-22.1ZM423.1,53.9h-4.1l-9-22.1h4.3l6.9,17.3h.1l6.6-17.3h4l-8.8,22.1ZM455.5,49.9c-2.3,3.1-6,4.8-9.8,4.6-6.9,0-11.2-5.2-11.2-11.6s4.8-11.6,11.3-11.6,10.5,4.2,10.5,11.5v1.2h-17.8c.2,3.9,3.3,7,7.2,7.1,2.7.2,5.4-1.1,7-3.3l2.8,2.1ZM452.3,40.8c-.1-3.7-2.6-6.2-6.6-6.2-3.7-.2-6.9,2.5-7.2,6.2h13.8ZM462,37c0-2-.2-3.8-.2-5.2h3.5c0,1.2.1,2.4.1,3.6h.1c1.4-2.7,4.3-4.3,7.4-4.2,5.8,0,8.4,3.7,8.4,9v13.6h-3.7v-13.2c0-3.7-1.6-6-5-6s-6.8,3.4-6.8,8.5v10.7h-3.8v-16.8ZM513.3,34.9h-6.5v11c0,2.8,0,5.1,3.3,5.1,1.2,0,2.3-.2,3.3-.8v3.3c-1.3.6-2.7.8-4.2.8-5.2,0-6.1-2.8-6.1-7.4v-12h-4.8v-3.1h4.8v-6.3h3.7v6.3h6.5v3.1h0ZM528.4,31.2c6.8,0,11.8,4.7,11.8,11.6s-5,11.6-11.8,11.6-11.8-4.7-11.8-11.6,5-11.6,11.8-11.6h0ZM528.4,51c4.8,0,7.8-3.6,7.8-8.2s-3.1-8.2-7.8-8.2-7.8,3.6-7.8,8.2c0,4.6,3,8.2,7.8,8.2h0ZM577.3,49.9c-1.9,2.9-5.1,4.6-8.6,4.5-6.2,0-11-5-11-11.6s4.7-11.6,11.6-11.6c3.1,0,6,1.4,7.9,3.8h0v-16.8h3.7v35.6h-3.7v-3.9ZM569.5,34.6c-4.8,0-7.8,3.6-7.8,8.2s3.1,8.2,7.8,8.2,7.8-3.6,7.8-8.2-3.1-8.2-7.8-8.2ZM598.2,31.2c6.8,0,11.8,4.7,11.8,11.6s-5,11.6-11.8,11.6-11.8-4.7-11.8-11.6c-.1-6.3,4.8-11.5,11.1-11.6.2,0,.5,0,.7,0ZM598.2,51c4.8,0,7.8-3.6,7.8-8.2s-3.1-8.2-7.8-8.2-7.8,3.6-7.8,8.2,3.1,8.2,7.8,8.2ZM628.8,37c0-2-.2-3.8-.2-5.2h3.5c0,1.2,0,2.4,0,3.6h0c1.4-2.7,4.3-4.3,7.4-4.2,4.8,0,6.3,2.7,7,4.2,1.6-2.6,3.6-4.2,7-4.2,6.3,0,8.4,3.5,8.4,9.2v13.4h-3.7v-13.1c0-3.1-1.1-6-5.4-6s-5.7,2.5-5.7,6.5v12.7h-3.7v-12.5c0-4.9-1.2-6.7-4.2-6.7-4.8,0-6.8,3.4-6.8,8.5v10.7h-3.7v-16.9ZM679.5,31.2c6.8,0,11.8,4.7,11.8,11.6s-5,11.6-11.8,11.6-11.8-4.7-11.8-11.6,5-11.6,11.8-11.6ZM679.5,51c4.8,0,7.8-3.6,7.8-8.2s-3.1-8.2-7.8-8.2-7.8,3.6-7.8,8.2,3,8.2,7.8,8.2ZM697,37c0-2-.2-3.8-.2-5.2h3.5c0,1.2,0,2.4,0,3.6h0c1.4-2.7,4.3-4.3,7.4-4.2.5,0,1,0,1.5.2l-.2,3.7c-.6-.2-1.3-.3-2-.3-4.5,0-6.5,3.2-6.5,8.2v10.7h-3.7v-16.7ZM732.5,49.9c-2.3,3.1-6,4.8-9.8,4.6-6.9,0-11.2-5.2-11.2-11.6s4.8-11.6,11.3-11.6,10.5,4.2,10.5,11.5v1.2h-17.8c.2,3.9,3.3,7,7.2,7.1,2.7.2,5.4-1.1,7-3.3l2.8,2.1ZM729.3,40.8c0-3.7-2.6-6.2-6.6-6.2-3.7-.2-6.9,2.5-7.2,6.2h13.8ZM744.9,51.3c0,1.5-1.2,2.8-2.8,2.8s-2.8-1.2-2.8-2.8h0c0-1.6,1.3-2.8,2.8-2.8,1.5,0,2.8,1.3,2.8,2.8h0ZM742,25.3c3.2,0,5.8,2.7,5.8,5.9,0,3.2-2.7,5.8-5.9,5.8-3.2,0-5.8-2.6-5.8-5.8,0-3.2,2.6-5.9,5.8-5.9,0,0,0,0,.1,0h0ZM742,36.2c2.8,0,5-2.2,5-5,0-2.8-2.2-5-5-5s-5,2.2-5,5c0,2.7,2.3,5,5,5h0ZM743.5,34.5l-1.4-2.6h-.9v2.6h-1.6v-6.7h2.9c1.2,0,2.5.5,2.5,2.1,0,.8-.5,1.5-1.3,1.8l1.8,2.8h-2ZM742.3,30.7c.5,0,1-.3,1-.8,0,0,0,0,0,0,0-.5-.6-.8-1-.8h-1.2v1.6s1.2.1,1.2,0Z"/>
</svg>